<svg width="64" height="64" viewBox="0 0 64 64" fill="none" xmlns="http://www.w3.org/2000/svg">
  <rect width="64" height="64" rx="18" fill="url(#bg)"/>
  <rect x="1.5" y="1.5" width="61" height="61" rx="16.5" stroke="#FBBF24" stroke-opacity="0.3" stroke-width="3"/>
  <path d="M32 48V17" stroke="#FBBF24" stroke-width="3.2" stroke-linecap="round"/>
  <path d="M32 25C25.5 25 21 21.5 18.5 15.5C25.2 15.9 30 19 32 25Z" fill="#FBBF24"/>
  <path d="M32 25C38.5 25 43 21.5 45.5 15.5C38.8 15.9 34 19 32 25Z" fill="#FBBF24"/>
  <path d="M32 34C25 34 20.1 30.2 17.5 23.6C24.7 24.1 30 27.5 32 34Z" fill="#FCD34D"/>
  <path d="M32 34C39 34 43.9 30.2 46.5 23.6C39.3 24.1 34 27.5 32 34Z" fill="#FCD34D"/>
  <path d="M32 43C24.8 43 19.8 39.1 17 32.4C24.4 32.9 29.8 36.4 32 43Z" fill="#FBBF24"/>
  <path d="M32 43C39.2 43 44.2 39.1 47 32.4C39.6 32.9 34.2 36.4 32 43Z" fill="#FBBF24"/>
  <defs>
    <linearGradient id="bg" x1="12" y1="10" x2="54" y2="58" gradientUnits="userSpaceOnUse">
      <stop stop-color="#052E1C"/>
      <stop offset="1" stop-color="#065F46"/>
    </linearGradient>
  </defs>
</svg>
